<mxfile host="app.diagrams.net" agent="Mozilla/5.0 (Windows NT 10.0; Win64; x64) AppleWebKit/537.36 (KHTML, like Gecko) Chrome/131.0.0.0 Safari/537.36" version="25.0.1">
  <diagram name="หน้า-1" id="X3N6KHx9l_gmjQS7k4IY">
    <mxGraphModel dx="1050" dy="530" grid="1" gridSize="10" guides="1" tooltips="1" connect="1" arrows="1" fold="1" page="1" pageScale="1" pageWidth="827" pageHeight="1169" math="0" shadow="0">
      <root>
        <mxCell id="0" />
        <mxCell id="1" parent="0" />
        <mxCell id="cDNTUSiYUr3s3rkNs15d-3" value="" style="edgeStyle=orthogonalEdgeStyle;rounded=0;orthogonalLoop=1;jettySize=auto;html=1;" edge="1" parent="1" source="cDNTUSiYUr3s3rkNs15d-1" target="cDNTUSiYUr3s3rkNs15d-2">
          <mxGeometry relative="1" as="geometry" />
        </mxCell>
        <mxCell id="cDNTUSiYUr3s3rkNs15d-1" value="Start" style="ellipse;whiteSpace=wrap;html=1;" vertex="1" parent="1">
          <mxGeometry x="354" y="10" width="120" height="80" as="geometry" />
        </mxCell>
        <mxCell id="cDNTUSiYUr3s3rkNs15d-5" value="" style="edgeStyle=orthogonalEdgeStyle;rounded=0;orthogonalLoop=1;jettySize=auto;html=1;" edge="1" parent="1" source="cDNTUSiYUr3s3rkNs15d-2" target="cDNTUSiYUr3s3rkNs15d-4">
          <mxGeometry relative="1" as="geometry" />
        </mxCell>
        <mxCell id="cDNTUSiYUr3s3rkNs15d-2" value="Input a ... -1" style="shape=parallelogram;perimeter=parallelogramPerimeter;whiteSpace=wrap;html=1;fixedSize=1;" vertex="1" parent="1">
          <mxGeometry x="354" y="180" width="120" height="60" as="geometry" />
        </mxCell>
        <mxCell id="cDNTUSiYUr3s3rkNs15d-12" value="" style="edgeStyle=orthogonalEdgeStyle;rounded=0;orthogonalLoop=1;jettySize=auto;html=1;" edge="1" parent="1" source="cDNTUSiYUr3s3rkNs15d-4" target="cDNTUSiYUr3s3rkNs15d-11">
          <mxGeometry relative="1" as="geometry" />
        </mxCell>
        <mxCell id="cDNTUSiYUr3s3rkNs15d-4" value="Output array1" style="shape=parallelogram;perimeter=parallelogramPerimeter;whiteSpace=wrap;html=1;fixedSize=1;" vertex="1" parent="1">
          <mxGeometry x="354" y="320" width="120" height="60" as="geometry" />
        </mxCell>
        <mxCell id="cDNTUSiYUr3s3rkNs15d-9" value="" style="edgeStyle=orthogonalEdgeStyle;rounded=0;orthogonalLoop=1;jettySize=auto;html=1;" edge="1" parent="1" source="cDNTUSiYUr3s3rkNs15d-6" target="cDNTUSiYUr3s3rkNs15d-8">
          <mxGeometry relative="1" as="geometry" />
        </mxCell>
        <mxCell id="cDNTUSiYUr3s3rkNs15d-6" value="array2 == array1" style="whiteSpace=wrap;html=1;" vertex="1" parent="1">
          <mxGeometry x="354" y="600" width="120" height="60" as="geometry" />
        </mxCell>
        <mxCell id="cDNTUSiYUr3s3rkNs15d-8" value="Output array2" style="shape=parallelogram;perimeter=parallelogramPerimeter;whiteSpace=wrap;html=1;fixedSize=1;" vertex="1" parent="1">
          <mxGeometry x="354" y="740" width="120" height="60" as="geometry" />
        </mxCell>
        <mxCell id="cDNTUSiYUr3s3rkNs15d-13" value="" style="edgeStyle=orthogonalEdgeStyle;rounded=0;orthogonalLoop=1;jettySize=auto;html=1;" edge="1" parent="1" source="cDNTUSiYUr3s3rkNs15d-11" target="cDNTUSiYUr3s3rkNs15d-6">
          <mxGeometry relative="1" as="geometry" />
        </mxCell>
        <mxCell id="cDNTUSiYUr3s3rkNs15d-11" value="Output array2=0" style="shape=parallelogram;perimeter=parallelogramPerimeter;whiteSpace=wrap;html=1;fixedSize=1;" vertex="1" parent="1">
          <mxGeometry x="354" y="460" width="120" height="60" as="geometry" />
        </mxCell>
      </root>
    </mxGraphModel>
  </diagram>
</mxfile>
